Coordinates
version=1
nRows=50
nColumns=16
inDegrees=yes
endheader
time	shoulder_elv_r	shoulder_elv_l	elv_angle_r	elv_angle_l	elbow_flexion_r	elbow_flexion_l	shoulder_rot_r	shoulder_rot_l	pro_sup_r	pro_sup_l	hip_flexion_r	hip_flexion_l	knee_angle_r	knee_angle_l	lumbar_extension
0.000000	30.000000	30.000000	0.000000	0.000000	30.000000	30.000000	15.000000	15.000000	80.000000	80.000000	0.000000	0.000000	0.000000	0.000000	0.000000
0.040816	31.020408	31.020408	0.000000	0.000000	31.428571	31.428571	15.000000	15.000000	80.000000	80.000000	0.000000	0.000000	0.000000	0.000000	0.000000
0.081633	32.040816	32.040816	0.000000	0.000000	32.857143	32.857143	15.000000	15.000000	80.000000	80.000000	0.000000	0.000000	0.000000	0.000000	0.000000
0.122449	33.061224	33.061224	0.000000	0.000000	34.285714	34.285714	15.000000	15.000000	80.000000	80.000000	0.000000	0.000000	0.000000	0.000000	0.000000
0.163265	34.081633	34.081633	0.000000	0.000000	35.714286	35.714286	15.000000	15.000000	80.000000	80.000000	0.000000	0.000000	0.000000	0.000000	0.000000
0.204082	35.102041	35.102041	0.000000	0.000000	37.142857	37.142857	15.000000	15.000000	80.000000	80.000000	0.000000	0.000000	0.000000	0.000000	0.000000
0.244898	36.122449	36.122449	0.000000	0.000000	38.571429	38.571429	15.000000	15.000000	80.000000	80.000000	0.000000	0.000000	0.000000	0.000000	0.000000
0.285714	37.142857	37.142857	0.000000	0.000000	40.000000	40.000000	15.000000	15.000000	80.000000	80.000000	0.000000	0.000000	0.000000	0.000000	0.000000
0.326531	38.163265	38.163265	0.000000	0.000000	41.428571	41.428571	15.000000	15.000000	80.000000	80.000000	0.000000	0.000000	0.000000	0.000000	0.000000
0.367347	39.183673	39.183673	0.000000	0.000000	42.857143	42.857143	15.000000	15.000000	80.000000	80.000000	0.000000	0.000000	0.000000	0.000000	0.000000
0.408163	40.204082	40.204082	0.000000	0.000000	44.285714	44.285714	15.000000	15.000000	80.000000	80.000000	0.000000	0.000000	0.000000	0.000000	0.000000
0.448980	41.224490	41.224490	0.000000	0.000000	45.714286	45.714286	15.000000	15.000000	80.000000	80.000000	0.000000	0.000000	0.000000	0.000000	0.000000
0.489796	42.244898	42.244898	0.000000	0.000000	47.142857	47.142857	15.000000	15.000000	80.000000	80.000000	0.000000	0.000000	0.000000	0.000000	0.000000
0.530612	43.265306	43.265306	0.000000	0.000000	48.571429	48.571429	15.000000	15.000000	80.000000	80.000000	0.000000	0.000000	0.000000	0.000000	0.000000
0.571429	44.285714	44.285714	0.000000	0.000000	50.000000	50.000000	15.000000	15.000000	80.000000	80.000000	0.000000	0.000000	0.000000	0.000000	0.000000
0.612245	45.306122	45.306122	0.000000	0.000000	51.428571	51.428571	15.000000	15.000000	80.000000	80.000000	0.000000	0.000000	0.000000	0.000000	0.000000
0.653061	46.326531	46.326531	0.000000	0.000000	52.857143	52.857143	15.000000	15.000000	80.000000	80.000000	0.000000	0.000000	0.000000	0.000000	0.000000
0.693878	47.346939	47.346939	0.000000	0.000000	54.285714	54.285714	15.000000	15.000000	80.000000	80.000000	0.000000	0.000000	0.000000	0.000000	0.000000
0.734694	48.367347	48.367347	0.000000	0.000000	55.714286	55.714286	15.000000	15.000000	80.000000	80.000000	0.000000	0.000000	0.000000	0.000000	0.000000
0.775510	49.387755	49.387755	0.000000	0.000000	57.142857	57.142857	15.000000	15.000000	80.000000	80.000000	0.000000	0.000000	0.000000	0.000000	0.000000
0.816327	50.408163	50.408163	0.000000	0.000000	58.571429	58.571429	15.000000	15.000000	80.000000	80.000000	0.000000	0.000000	0.000000	0.000000	0.000000
0.857143	51.428571	51.428571	0.000000	0.000000	60.000000	60.000000	15.000000	15.000000	80.000000	80.000000	0.000000	0.000000	0.000000	0.000000	0.000000
0.897959	52.448980	52.448980	0.000000	0.000000	61.428571	61.428571	15.000000	15.000000	80.000000	80.000000	0.000000	0.000000	0.000000	0.000000	0.000000
0.938776	53.469388	53.469388	0.000000	0.000000	62.857143	62.857143	15.000000	15.000000	80.000000	80.000000	0.000000	0.000000	0.000000	0.000000	0.000000
0.979592	54.489796	54.489796	0.000000	0.000000	64.285714	64.285714	15.000000	15.000000	80.000000	80.000000	0.000000	0.000000	0.000000	0.000000	0.000000
1.020408	55.510204	55.510204	0.000000	0.000000	65.714286	65.714286	15.000000	15.000000	80.000000	80.000000	0.000000	0.000000	0.000000	0.000000	0.000000
1.061224	56.530612	56.530612	0.000000	0.000000	67.142857	67.142857	15.000000	15.000000	80.000000	80.000000	0.000000	0.000000	0.000000	0.000000	0.000000
1.102041	57.551020	57.551020	0.000000	0.000000	68.571429	68.571429	15.000000	15.000000	80.000000	80.000000	0.000000	0.000000	0.000000	0.000000	0.000000
1.142857	58.571429	58.571429	0.000000	0.000000	70.000000	70.000000	15.000000	15.000000	80.000000	80.000000	0.000000	0.000000	0.000000	0.000000	0.000000
1.183673	59.591837	59.591837	0.000000	0.000000	71.428571	71.428571	15.000000	15.000000	80.000000	80.000000	0.000000	0.000000	0.000000	0.000000	0.000000
1.224490	60.612245	60.612245	0.000000	0.000000	72.857143	72.857143	15.000000	15.000000	80.000000	80.000000	0.000000	0.000000	0.000000	0.000000	0.000000
1.265306	61.632653	61.632653	0.000000	0.000000	74.285714	74.285714	15.000000	15.000000	80.000000	80.000000	0.000000	0.000000	0.000000	0.000000	0.000000
1.306122	62.653061	62.653061	0.000000	0.000000	75.714286	75.714286	15.000000	15.000000	80.000000	80.000000	0.000000	0.000000	0.000000	0.000000	0.000000
1.346939	63.673469	63.673469	0.000000	0.000000	77.142857	77.142857	15.000000	15.000000	80.000000	80.000000	0.000000	0.000000	0.000000	0.000000	0.000000
1.387755	64.693878	64.693878	0.000000	0.000000	78.571429	78.571429	15.000000	15.000000	80.000000	80.000000	0.000000	0.000000	0.000000	0.000000	0.000000
1.428571	65.714286	65.714286	0.000000	0.000000	80.000000	80.000000	15.000000	15.000000	80.000000	80.000000	0.000000	0.000000	0.000000	0.000000	0.000000
1.469388	66.734694	66.734694	0.000000	0.000000	81.428571	81.428571	15.000000	15.000000	80.000000	80.000000	0.000000	0.000000	0.000000	0.000000	0.000000
1.510204	67.755102	67.755102	0.000000	0.000000	82.857143	82.857143	15.000000	15.000000	80.000000	80.000000	0.000000	0.000000	0.000000	0.000000	0.000000
1.551020	68.775510	68.775510	0.000000	0.000000	84.285714	84.285714	15.000000	15.000000	80.000000	80.000000	0.000000	0.000000	0.000000	0.000000	0.000000
1.591837	69.795918	69.795918	0.000000	0.000000	85.714286	85.714286	15.000000	15.000000	80.000000	80.000000	0.000000	0.000000	0.000000	0.000000	0.000000
1.632653	70.816327	70.816327	0.000000	0.000000	87.142857	87.142857	15.000000	15.000000	80.000000	80.000000	0.000000	0.000000	0.000000	0.000000	0.000000
1.673469	71.836735	71.836735	0.000000	0.000000	88.571429	88.571429	15.000000	15.000000	80.000000	80.000000	0.000000	0.000000	0.000000	0.000000	0.000000
1.714286	72.857143	72.857143	0.000000	0.000000	90.000000	90.000000	15.000000	15.000000	80.000000	80.000000	0.000000	0.000000	0.000000	0.000000	0.000000
1.755102	73.877551	73.877551	0.000000	0.000000	91.428571	91.428571	15.000000	15.000000	80.000000	80.000000	0.000000	0.000000	0.000000	0.000000	0.000000
1.795918	74.897959	74.897959	0.000000	0.000000	92.857143	92.857143	15.000000	15.000000	80.000000	80.000000	0.000000	0.000000	0.000000	0.000000	0.000000
1.836735	75.918367	75.918367	0.000000	0.000000	94.285714	94.285714	15.000000	15.000000	80.000000	80.000000	0.000000	0.000000	0.000000	0.000000	0.000000
1.877551	76.938776	76.938776	0.000000	0.000000	95.714286	95.714286	15.000000	15.000000	80.000000	80.000000	0.000000	0.000000	0.000000	0.000000	0.000000
1.918367	77.959184	77.959184	0.000000	0.000000	97.142857	97.142857	15.000000	15.000000	80.000000	80.000000	0.000000	0.000000	0.000000	0.000000	0.000000
1.959184	78.979592	78.979592	0.000000	0.000000	98.571429	98.571429	15.000000	15.000000	80.000000	80.000000	0.000000	0.000000	0.000000	0.000000	0.000000
2.000000	80.000000	80.000000	0.000000	0.000000	100.000000	100.000000	15.000000	15.000000	80.000000	80.000000	0.000000	0.000000	0.000000	0.000000	0.000000
